<svg id="svg" version="1.1" xmlns="http://www.w3.org/2000/svg" xmlns:xlink="http://www.w3.org/1999/xlink" width="400" height="225" viewBox="0, 0, 400,225"><g id="svgg"><path id="path0" d="M0.000 112.500 L 0.000 225.000 200.000 225.000 L 400.000 225.000 400.000 112.500 L 400.000 0.000 200.000 0.000 L 0.000 0.000 0.000 112.500 M205.337 80.943 C 224.640 84.258,236.495 104.048,230.313 122.634 C 224.306 140.693,203.309 149.615,186.197 141.382 C 167.913 132.585,162.252 109.095,174.547 93.043 C 181.662 83.753,193.838 78.968,205.337 80.943 M197.188 82.697 C 171.980 85.147,160.954 115.773,178.840 133.660 C 194.541 149.360,221.507 142.923,228.413 121.827 C 235.078 101.465,218.451 80.630,197.188 82.697 M204.711 93.096 C 219.812 97.026,225.085 115.385,214.271 126.378 C 201.653 139.205,180.099 130.444,180.127 112.500 C 180.146 99.484,192.325 89.872,204.711 93.096 " stroke="none" fill="#fbfbfb" fill-rule="evenodd"></path><path id="path1" d="M194.578 81.045 C 168.975 85.558,159.178 116.739,177.588 135.115 C 192.894 150.391,218.848 146.131,228.426 126.771 C 240.039 103.298,220.221 76.525,194.578 81.045 M206.458 83.191 C 234.017 89.769,238.574 126.720,213.383 139.347 C 191.454 150.340,166.255 131.580,170.390 107.339 C 173.244 90.609,190.141 79.295,206.458 83.191 M197.270 99.480 C 184.474 102.030,182.444 119.695,194.317 125.167 C 200.555 128.042,207.900 125.806,211.549 119.921 C 217.752 109.916,208.850 97.173,197.270 99.480 M202.998 100.411 C 216.105 103.763,215.779 122.389,202.563 125.295 C 194.668 127.031,187.278 121.010,187.244 112.813 C 187.209 104.511,195.012 98.368,202.998 100.411 M194.792 113.021 L 194.792 121.250 195.833 121.250 L 196.875 121.250 196.875 117.500 L 196.875 113.750 198.490 113.751 C 201.791 113.754,202.150 114.067,203.511 118.143 L 204.514 121.146 205.486 121.209 C 206.661 121.286,206.656 121.511,205.552 118.219 C 204.442 114.908,204.099 114.227,203.320 113.784 C 202.532 113.336,202.540 113.316,203.759 112.744 C 206.074 111.659,206.651 108.120,204.830 106.172 C 203.695 104.956,203.006 104.801,198.698 104.796 L 194.792 104.792 194.792 113.021 M201.626 106.441 C 203.898 106.881,204.690 109.723,203.009 111.406 L 202.333 112.083 199.604 112.083 L 196.875 112.083 196.875 109.167 L 196.875 106.250 198.802 106.259 C 199.862 106.264,201.133 106.346,201.626 106.441 " stroke="none" fill="#0a0a0a" fill-rule="evenodd"></path><path id="path2" d="M197.760 82.644 C 197.961 82.696,198.289 82.696,198.490 82.644 C 198.690 82.591,198.526 82.548,198.125 82.548 C 197.724 82.548,197.560 82.591,197.760 82.644 M196.427 92.813 C 180.581 95.812,174.551 115.197,185.927 126.573 C 197.605 138.251,217.662 131.461,219.808 115.104 C 221.549 101.833,209.494 90.339,196.427 92.813 M203.188 99.502 C 212.206 101.521,216.499 112.307,211.460 120.285 C 206.882 127.534,196.543 128.623,190.411 122.502 C 180.578 112.688,189.593 96.459,203.188 99.502 M198.646 100.231 C 191.012 101.005,185.800 108.476,187.703 115.917 C 190.126 125.391,201.894 128.648,208.858 121.774 C 217.331 113.410,210.513 99.027,198.646 100.231 M203.542 105.080 C 206.793 106.799,206.850 111.786,203.632 112.950 C 202.778 113.259,202.749 113.382,203.443 113.753 C 204.124 114.117,204.991 115.932,205.907 118.906 L 206.628 121.250 205.514 121.250 L 204.400 121.250 203.435 118.254 C 202.136 114.220,202.000 114.088,199.049 113.991 L 196.875 113.920 196.875 117.585 L 196.875 121.250 195.833 121.250 L 194.792 121.250 194.792 112.897 L 194.792 104.545 198.802 104.620 C 202.208 104.683,202.922 104.752,203.542 105.080 M196.875 109.292 L 196.875 112.125 199.531 112.049 C 203.063 111.949,203.750 111.472,203.750 109.125 C 203.750 107.044,202.768 106.458,199.278 106.458 L 196.875 106.458 196.875 109.292 M229.840 113.958 C 229.840 114.359,229.883 114.523,229.935 114.323 C 229.988 114.122,229.988 113.794,229.935 113.594 C 229.883 113.393,229.840 113.557,229.840 113.958 " stroke="none" fill="#949494" fill-rule="evenodd"></path><path id="path3" d="M177.072 90.156 L 176.354 90.938 177.135 90.220 C 177.863 89.551,178.012 89.375,177.853 89.375 C 177.819 89.375,177.467 89.727,177.072 90.156 M178.739 91.198 L 178.021 91.979 178.802 91.261 C 179.529 90.593,179.679 90.417,179.520 90.417 C 179.485 90.417,179.134 90.768,178.739 91.198 M198.492 100.147 C 198.751 100.197,199.126 100.195,199.325 100.143 C 199.525 100.091,199.313 100.050,198.854 100.053 C 198.396 100.055,198.233 100.098,198.492 100.147 M200.677 100.144 C 200.878 100.196,201.206 100.196,201.406 100.144 C 201.607 100.091,201.443 100.048,201.042 100.048 C 200.641 100.048,200.477 100.091,200.677 100.144 M209.479 103.125 C 210.043 103.698,210.552 104.167,210.609 104.167 C 210.667 104.167,210.252 103.698,209.688 103.125 C 209.123 102.552,208.615 102.083,208.557 102.083 C 208.500 102.083,208.915 102.552,209.479 103.125 M208.333 103.190 C 208.333 103.226,208.638 103.531,209.010 103.867 L 209.688 104.479 209.076 103.802 C 208.505 103.171,208.333 103.029,208.333 103.190 M196.510 104.738 C 197.513 104.777,199.154 104.777,200.156 104.738 C 201.159 104.700,200.339 104.669,198.333 104.669 C 196.328 104.669,195.508 104.700,196.510 104.738 M197.865 106.404 C 198.466 106.446,199.451 106.446,200.052 106.404 C 200.654 106.362,200.161 106.327,198.958 106.327 C 197.755 106.327,197.263 106.362,197.865 106.404 M205.890 109.167 C 205.890 109.682,205.931 109.893,205.980 109.635 C 206.030 109.378,206.030 108.956,205.980 108.698 C 205.931 108.440,205.890 108.651,205.890 109.167 M186.317 112.708 C 186.317 113.453,186.354 113.758,186.401 113.385 C 186.447 113.013,186.447 112.404,186.401 112.031 C 186.354 111.659,186.317 111.964,186.317 112.708 M197.767 113.903 C 198.314 113.946,199.158 113.946,199.642 113.902 C 200.125 113.859,199.677 113.823,198.646 113.824 C 197.615 113.825,197.219 113.860,197.767 113.903 M209.471 122.552 L 208.438 123.646 209.531 122.612 C 210.548 121.651,210.721 121.458,210.565 121.458 C 210.532 121.458,210.040 121.951,209.471 122.552 M178.950 134.010 C 179.460 134.555,179.906 135.000,179.939 135.000 C 180.096 135.000,179.930 134.813,179.010 133.950 L 178.021 133.021 178.950 134.010 " stroke="none" fill="#7c7c7c" fill-rule="evenodd"></path><path id="path4" d="M190.924 103.802 L 190.313 104.479 190.990 103.867 C 191.362 103.531,191.667 103.226,191.667 103.190 C 191.667 103.029,191.495 103.171,190.924 103.802 " stroke="none" fill="#848484" fill-rule="evenodd"></path></g></svg>